HIERARCHY
ROOT Hips
{
	OFFSET -322.846497 91.085190 447.741394
	CHANNELS 6 Xposition Yposition Zposition Xrotation Yrotation Zrotation 
	JOINT RightUpLeg
	{
		OFFSET 0.103462 1.857844 10.548508
		CHANNELS 3 Xrotation Yrotation Zrotation
		JOINT RightLeg
		{
			OFFSET 43.500000 -0.000046 -0.000008
			CHANNELS 3 Xrotation Yrotation Zrotation
			JOINT RightFoot
			{
				OFFSET 42.372192 0.000000 0.000004
				CHANNELS 3 Xrotation Yrotation Zrotation
				JOINT RightToe
				{
					OFFSET 17.299997 -0.000003 0.000018
					CHANNELS 3 Xrotation Yrotation Zrotation
					End Site
					{
						OFFSET 0.000000 0.000000 0.000000
					}
				}
			}
		}
	}
	JOINT LeftUpLeg
	{
		OFFSET 0.103459 1.857830 -10.548515
		CHANNELS 3 Xrotation Yrotation Zrotation
		JOINT LeftLeg
		{
			OFFSET 43.500046 -0.000034 -0.000006
			CHANNELS 3 Xrotation Yrotation Zrotation
			JOINT LeftFoot
			{
				OFFSET 42.372253 0.000015 -0.000006
				CHANNELS 3 Xrotation Yrotation Zrotation
				JOINT LeftToe
				{
					OFFSET 17.299969 -0.000012 0.000010
					CHANNELS 3 Xrotation Yrotation Zrotation
					End Site
					{
						OFFSET 0.000000 0.000000 0.000000
					}
				}
			}
		}
	}
	JOINT Spine
	{
		OFFSET 6.901964 -2.603727 0.000001
		CHANNELS 3 Xrotation Yrotation Zrotation
		JOINT Spine1
		{
			OFFSET 12.588105 -0.000009 0.000006
			CHANNELS 3 Xrotation Yrotation Zrotation
			JOINT Spine2
			{
				OFFSET 12.343197 0.000007 -0.000002
				CHANNELS 3 Xrotation Yrotation Zrotation
				JOINT Neck
				{
					OFFSET 25.832897 0.000002 -0.000001
					CHANNELS 3 Xrotation Yrotation Zrotation
					JOINT Head
					{
						OFFSET 11.766611 0.000000 0.000004
						CHANNELS 3 Xrotation Yrotation Zrotation
						End Site
						{
							OFFSET 0.000000 0.000000 0.000000
						}
					}
				}
				JOINT RightShoulder
				{
					OFFSET 19.745911 -1.480377 6.000110
					CHANNELS 3 Xrotation Yrotation Zrotation
					JOINT RightArm
					{
						OFFSET 11.284108 -0.000006 -0.000027
						CHANNELS 3 Xrotation Yrotation Zrotation
						JOINT RightForeArm
						{
							OFFSET 33.000046 -0.000010 0.000031
							CHANNELS 3 Xrotation Yrotation Zrotation
							JOINT RightHand
							{
								OFFSET 25.200014 0.000009 0.000001
								CHANNELS 3 Xrotation Yrotation Zrotation
								End Site
								{
									OFFSET 0.000000 0.000000 0.000000
								}
							}
						}
					}
				}
				JOINT LeftShoulder
				{
					OFFSET 19.746105 -1.480358 -6.000092
					CHANNELS 3 Xrotation Yrotation Zrotation
					JOINT LeftArm
					{
						OFFSET 11.284138 -0.000011 -0.000001
						CHANNELS 3 Xrotation Yrotation Zrotation
						JOINT LeftForeArm
						{
							OFFSET 33.000088 0.000023 -0.000007
							CHANNELS 3 Xrotation Yrotation Zrotation
							JOINT LeftHand
							{
								OFFSET 25.199776 0.000128 0.000427
								CHANNELS 3 Xrotation Yrotation Zrotation
								End Site
								{
									OFFSET 0.000000 0.000000 0.000000
								}
							}
						}
					}
				}
			}
		}
	}
}
MOTION
Frames: 5
Frame Time: 0.033333
-143.407700 76.525261 471.614014 87.886926 2.442613 98.693215 168.408778 1.103705 172.327626 -71.699057 4.888640 -7.282034 111.355006 4.623901 -1.897415 21.454558 0.003112 0.000021 127.569793 4.153402 178.323043 -42.913167 -1.515443 4.013224 68.491382 -1.826334 2.932524 21.454553 -0.003089 0.000000 7.610068 0.703323 -1.968280 5.182323 1.493531 -3.903600 4.864929 1.469821 -3.912537 19.429796 5.716275 4.113809 -14.815232 -3.865944 5.943374 174.334814 -82.252273 4.199048 -14.001059 55.714611 6.647684 -83.897024 -4.947629 2.422256 -9.307064 -15.597263 16.265686 -130.137971 84.689681 51.870191 44.115348 -35.996606 -63.883675 -106.566217 0.241818 -3.056272 -17.040152 26.077964 -24.073075 
-144.117401 76.332802 481.508911 88.006509 3.136760 102.466491 172.394439 -1.227709 174.955350 -75.099269 4.081219 -6.952681 100.689003 4.415396 -0.920461 21.454555 0.003106 0.000018 132.830855 6.264688 175.105683 -27.453505 0.148591 5.673500 66.119400 -1.053613 8.171193 21.454550 -0.003095 -0.000002 7.309950 0.711477 -2.413996 4.575713 1.517075 -4.798619 4.258713 1.487964 -4.807660 21.104364 7.549761 3.735285 -15.614084 -5.352398 6.074417 161.368765 -83.196198 17.269102 -14.674433 53.959000 7.239681 -93.323812 -1.629858 2.609493 -10.618790 -12.636343 14.333767 -132.518046 85.245931 49.443135 48.358791 -32.333805 -66.055900 -109.039489 0.043709 -3.150073 -15.271804 24.788198 -20.490163 
-144.780701 75.401070 490.921906 88.536648 4.263545 106.013121 174.000203 -4.361497 175.160365 -82.275011 3.895288 -7.753331 93.685231 4.644560 -3.352729 21.454562 0.003119 0.000005 134.835748 8.331412 176.446299 -29.154768 0.106297 7.947438 64.824246 -3.239261 6.548805 21.454553 -0.003089 -0.000000 7.149029 0.504370 -2.394844 4.262642 1.095769 -4.769877 3.945699 1.066842 -4.776379 21.479644 9.341201 2.876098 -15.879679 -6.555819 5.618352 157.473932 -83.843045 21.166165 -16.969533 51.804656 10.988935 -100.815798 -0.889586 2.893213 -11.469692 -12.988149 15.620289 -137.978058 85.411871 43.940926 52.480944 -31.755762 -68.024019 -110.195902 -0.309664 -3.175485 -13.664874 21.663753 -16.153855 
-145.864395 74.322594 499.153503 86.284735 5.849471 109.637097 171.903950 -9.708305 176.047238 -91.368267 4.420876 -10.887257 94.151583 6.575689 -4.428398 21.454565 0.003109 0.000015 134.107541 9.303104 -173.366498 -39.381597 -1.586991 5.720087 55.254386 -1.388610 5.748846 21.454551 -0.003081 0.000002 6.988997 0.879127 -2.057532 3.933086 1.826906 -4.084857 3.615713 1.802086 -4.095795 21.417300 9.055029 2.119644 -16.892817 -5.412924 4.460351 161.901110 -83.946891 16.696674 -18.695392 52.168783 13.812721 -103.172794 -0.857410 2.995925 -14.002322 -13.279349 17.151249 -141.520072 84.966740 40.395006 52.673353 -35.462148 -67.718710 -110.154108 -0.385830 -3.168408 -11.866205 20.214502 -17.164935 
-146.781601 72.726067 507.231415 84.583854 9.269117 111.835407 169.527194 -15.451192 176.322918 -100.496808 4.875988 -12.560182 96.233609 7.790445 -3.824273 21.454558 0.003108 0.000013 133.072425 11.622422 -169.389634 -57.391491 2.724034 5.144192 67.046032 -2.188676 4.279534 21.454555 -0.003085 0.000003 7.498959 1.552586 -1.366059 4.950122 3.161797 -2.665923 4.631879 3.145510 -2.684966 17.631372 5.238280 1.407922 -14.801578 -2.254622 2.575011 164.814090 -82.174989 13.833766 -17.482165 55.271790 14.568001 -100.271705 -1.254651 2.894371 -15.589832 -15.197074 17.959842 -138.591847 82.977919 43.435041 44.182745 -42.098557 -62.021902 -106.735598 0.168740 -3.058579 -14.249059 18.779416 -23.379862 
